<?xml version="1.0" encoding="UTF-8" standalone="no"?>
<!-- License http://creativecommons.org/licenses/by-nc-sa/4.0/ -->
<svg xmlns="http://www.w3.org/2000/svg" version="1.1" preserveAspectRatio="xMidYMid slice" viewBox="0 0 200 90" width="200" height="90">
	<defs>
		<filter id="shadow">
			<!--<feDropShadow dx="3" dy="3" stdDeviation="2" style="flood-color: #136" />-->
			<!--XXX: see https://www.alexgeorgiou.gr/render-svg-fedropshadow-filter/ -->
			<feGaussianBlur in="SourceAlpha" stdDeviation="2" />
			<feOffset dx="3" dy="3" result="offsetblur" />
			<feFlood flood-color="#136" flood-opacity="1" />
			<feComposite in2="offsetblur" operator="in" />
			<feMerge>
				<feMergeNode/>
				<feMergeNode in="SourceGraphic"/>
			</feMerge>
		</filter>
	</defs>
	<path style="fill:#0099cc;fill-opacity:1;filter:url(#shadow)" d="m 80.980603,81.878807 c -1.220301,-0.617241 -2.561639,-1.616229 -2.980749,-2.21997 L 77.237857,78.56111 h 1.635814 1.635816 l 1.650639,-0.793246 c 0.907852,-0.436304 2.051637,-1.26878 2.541757,-1.849975 l 0.891122,-1.056731 0.01219,-1.62782 0.01218,-1.627803 -0.729653,-1.332156 C 83.825329,68.333753 81.00396,65.898874 78.80001,65.019627 l -1.91754,-0.764988 h -2.847545 c -1.566149,0 -6.157473,0.363199 -10.202959,0.807132 L 56.476534,65.868886 52.732,65.314206 48.98745,64.759523 46.413852,63.512128 c -2.809958,-1.361972 -2.919284,-1.323902 -1.848987,0.643672 0.968423,1.780309 2.589884,3.134839 5.86257,4.897469 l 2.718926,1.464402 -4.90702,0.308309 -4.907018,0.308311 -3.768556,1.210012 -3.768532,1.210007 -4.35872,2.486251 -4.358723,2.486249 -3.218288,0.784367 -3.218287,0.784392 -2.425303,-0.15053 -2.425307,-0.150513 2.084246,-1.314344 2.084254,-1.31433 1.631833,-2.356428 c 1.968406,-2.842417 2.779155,-5.451512 2.819907,-9.074705 L 24.441293,63.021426 22.791711,59.948169 21.142129,56.87492 19.748603,56.001554 18.355097,55.128192 12.504729,55.086438 6.6543695,55.044664 5.8089173,54.235995 4.9634647,53.427332 5.0802228,51.270504 5.1969809,49.113676 4.3920438,48.474719 3.587081,47.835729 3.8814135,46.948766 4.175726,46.061812 3.1357439,45.529446 2.095762,44.997081 2.5951833,43.74065 C 3.3455031,41.852999 3.2323184,41.556379 1.5473023,40.994532 L 0,40.478599 V 39.559437 38.640258 L 0.972242,37.757709 C 2.1439476,36.694125 4.1215298,33.634201 4.1242102,32.880612 4.1252847,32.582928 3.6039144,32.09846 2.9656627,31.804018 L 1.8051858,31.268699 2.9308991,31.235291 4.0566325,31.201884 4.3865813,30.207478 4.7165508,29.213064 4.1600704,27.600233 C 3.558186,25.855912 3.5071574,25.316731 3.4505855,20.102056 l -0.037565,-3.453285 1.133673,-2.083527 C 5.1702036,13.41929 6.4955227,11.701988 7.4918674,10.748994 L 9.3033883,9.0162928 10.711922,8.7219669 C 11.486609,8.5599851 13.513026,7.782821 15.215059,6.9947225 16.91709,6.2066043 19.809061,5.2011116 21.641663,4.7602645 l 3.332,-0.8015198 6.467579,0.2167918 6.467582,0.2167919 4.899789,1.5925313 4.899789,1.5925512 8.952466,4.4537671 c 11.171117,5.557535 15.700997,7.419532 21.528885,8.849401 l 4.590838,1.126337 5.673441,-0.0016 5.673442,-0.0016 3.094588,-0.613028 c 1.702048,-0.337153 5.415568,-1.313376 8.252278,-2.169372 l 5.15768,-1.556349 15.0851,-7.233253 15.08511,-7.2332535 4.35997,-1.3278833 4.35994,-1.32790291 3.76449,-0.27146552 L 157.05108,0 l 3.30958,0.81187158 3.30957,0.81189102 2.87089,1.5710898 c 3.54754,1.9413948 6.83279,5.0298125 8.35745,7.8567266 l 1.15611,2.143601 0.20783,3.946612 0.20785,3.946611 -1.01905,2.95996 -1.01901,2.959959 -0.0516,-2.502081 -0.0516,-2.502073 -0.78805,-2.212144 c -0.43345,-1.21669 -1.45413,-2.985072 -2.26823,-3.929771 l -1.48022,-1.717595 -2.98581,-1.398405 -2.9858,-1.398386 -4.1587,-0.247323 -4.15872,-0.247343 -3.21048,0.787593 c -1.76574,0.433175 -4.6004,1.458693 -6.29922,2.278956 l -3.08875,1.49134 -3.75825,3.126467 c -10.60845,8.8252 -20.8191,13.765827 -34.50795,16.697389 l -5.35388,1.146868 -10.573205,-0.02506 -10.573234,-0.02507 -4.679249,-1.0665 c -2.573577,-0.586585 -6.578349,-1.709309 -8.899506,-2.49496 l -4.220278,-1.428455 0.517939,0.596926 c 0.873657,1.006893 7.262883,3.590467 11.444314,4.627676 l 3.962799,0.98298 6.151076,0.589194 6.151072,0.589196 6.597173,-0.562022 c 12.305219,-1.048267 24.225689,-4.12954 36.173519,-9.350351 l 5.71667,-2.498 4.06707,-1.051212 4.06708,-1.051231 5.67346,-0.256006 5.67344,-0.256024 4.96684,0.984807 4.96685,0.984809 4.49413,2.014402 c 5.72726,2.567084 10.06375,5.533725 14.0562,9.61598 l 3.16262,3.233755 1.79918,3.102597 c 2.18336,3.764897 3.019,6.618442 3.019,10.309068 v 2.788031 l -1.00048,2.155971 -1.00047,2.155974 -2.1472,1.849973 c -1.18095,1.017497 -2.39424,1.849973 -2.69623,1.849973 h -0.54901 l 0.35578,-1.072245 c 0.19576,-0.58972 0.36457,-2.976196 0.37529,-5.303259 l 0.0203,-4.231014 -1.14185,-2.46663 c -1.38263,-2.986821 -3.23454,-4.931324 -5.98633,-6.285677 l -2.06304,-1.015379 -3.35251,-0.221396 -3.35249,-0.221376 -3.48605,0.782545 c -5.79514,1.300906 -11.15405,4.265952 -16.62889,9.200712 -1.70203,1.534149 -4.82754,4.166957 -6.94556,5.850716 l -3.85101,3.061383 -3.62761,1.713821 c -1.99523,0.942606 -4.90419,2.038333 -6.4644,2.434937 l -2.83671,0.721111 -5.15768,0.002 -5.15767,0.002 -4.12613,-0.948698 c -2.26939,-0.521804 -4.59034,-1.081224 -5.15768,-1.243187 -0.56734,-0.161992 -0.006,0.162198 1.24679,0.720337 3.22984,1.438607 8.96226,2.795391 13.54677,3.206309 l 3.92525,0.351817 3.79267,-0.600558 3.79265,-0.600577 3.92603,-1.435521 3.92603,-1.435522 3.03682,-2.018889 c 1.67029,-1.110392 4.77756,-3.611635 6.90509,-5.558312 6.4152,-5.869849 10.13303,-8.235736 14.04506,-8.937717 l 1.87651,-0.336703 1.70987,0.552425 c 0.94042,0.303844 2.29007,0.999125 2.99927,1.545048 l 1.28941,0.992633 -2.06307,-0.361645 c -1.13468,-0.198967 -3.01995,-0.335313 -4.18948,-0.303052 l -2.12643,0.05866 -2.5155,1.233626 -2.51546,1.233625 -7.48872,7.316346 -7.48871,7.316362 -3.34239,1.8658 -3.3424,1.865806 -3.61041,1.093843 -3.61034,1.093865 -5.67347,-0.03069 -5.67344,-0.03069 -4.12614,-1.356727 c -5.09668,-1.675804 -9.7056,-4.06432 -18.296203,-9.481665 -6.82564,-4.30435 -16.046484,-9.084082 -17.503404,-9.073111 l -0.819909,0.0058 2.930553,1.597136 c 1.611794,0.878432 4.164844,2.623194 5.673443,3.877254 l 2.742886,2.280102 1.805186,2.879997 1.805189,2.880016 v 3.976657 3.976679 L 92.309001,78.32371 91.00565,80.780085 88.718286,81.890069 86.430927,83 H 84.816149 83.20137 l -2.218733,-1.122243 z m 50.751337,-29.21691 3.56523,-0.722432 3.34269,-1.496159 c 4.37707,-1.959166 8.96127,-5.15058 12.47853,-8.687226 l 2.83672,-2.852377 -2.32095,1.736062 c -6.44842,4.823356 -13.3267,8.484826 -19.19067,10.215624 l -3.45977,1.021187 -3.76097,0.323787 -3.76101,0.323789 -4.12612,-0.587191 c -2.26939,-0.322973 -7.72363,-1.439911 -12.12054,-2.482114 -7.898424,-1.872153 -15.859209,-3.248321 -16.307925,-2.819128 -0.127113,0.12157 0.763012,0.366772 1.978133,0.544836 1.215096,0.178103 6.154889,1.345576 10.977332,2.594489 4.82241,1.248932 10.39269,2.55576 12.37842,2.904081 l 3.61033,0.633281 5.15769,0.03594 5.15768,0.03594 3.5652,-0.722414 z M 5.1051834,20.101925 5.630698,18.128619 l -0.7530003,0.957619 -0.7530001,0.957594 0.040613,1.509036 c 0.044671,1.656336 0.1593994,1.479164 0.9397728,-1.450943 z" />
</svg>
