<?xml version="1.0" encoding="UTF-8" standalone="no"?>
<!-- License http://creativecommons.org/licenses/by-nc-sa/4.0/ -->
<svg xmlns="http://www.w3.org/2000/svg" version="1.1" preserveAspectRatio="xMidYMid slice" viewBox="0 0 200 90" width="200" height="90">
	<path style="fill:#00c3f9;fill-opacity:1;stroke:#ccffff;stroke-width:0.5;stroke-linecap:round;stroke-linejoin:round;stroke-miterlimit:4;stroke-dasharray:none;stroke-opacity:1;paint-order:markers fill stroke" d="m 83.957927,88.541005 C 82.696529,87.875426 81.310016,86.798204 80.87679,86.147182 l -0.787661,-1.183694 h 1.690908 1.690908 l 1.706229,-0.855369 c 0.938428,-0.47047 2.120734,-1.368141 2.627362,-1.994852 l 0.921133,-1.139486 0.0126,-1.755301 0.01259,-1.755281 -0.754227,-1.436482 C 86.898467,73.935192 83.982079,71.30963 81.703901,70.361526 L 79.721783,69.53663 h -2.943448 c -1.618894,0 -6.364849,0.391641 -10.546581,0.870342 l -7.603155,0.870322 -3.870644,-0.59812 -3.870663,-0.598121 -2.660273,-1.345083 c -2.904594,-1.468632 -3.017603,-1.427581 -1.911259,0.69408 1.00104,1.919731 2.677108,3.380339 6.060014,5.281007 l 2.810498,1.579084 -5.072283,0.332454 -5.07228,0.332456 -3.895477,1.304771 -3.895451,1.304766 -4.505518,2.680958 -4.505519,2.680955 -3.326676,0.845794 -3.326674,0.845821 -2.506985,-0.16232 -2.506988,-0.162298 2.154442,-1.417277 2.154448,-1.417258 1.68679,-2.540969 c 2.0347,-3.065016 2.872755,-5.878438 2.914879,-9.785374 l 0.03148,-2.92578 -1.705139,-3.313934 -1.705139,-3.313925 -1.440459,-0.941761 -1.440438,-0.941759 -6.0474,-0.04502 L 7.1284814,59.605398 6.2545555,58.7334 5.380629,57.861407 5.5013194,55.53567 5.62201,53.209935 4.7899604,52.520933 3.9578874,51.8319 4.2621328,50.875478 4.5663573,49.919063 3.49135,49.345006 2.4163426,48.770948 2.9325838,47.416124 C 3.7081734,45.380643 3.5911769,45.060795 1.8494115,44.454947 L 0.249998,43.89861 v -0.991145 -0.991163 l 1.0049859,-0.951665 c 1.2111672,-1.146875 3.255352,-4.446433 3.2581226,-5.259038 0.00111,-0.320997 -0.5378187,-0.843406 -1.1975659,-1.160906 l -1.1995604,-0.577241 1.1636259,-0.03603 1.1636466,-0.03603 0.3410612,-1.07228 0.3410825,-1.072273 -0.575222,-1.739138 C 3.9280193,28.130777 3.8752721,27.549371 3.816795,21.926318 L 3.777965,18.202595 4.9498188,15.9559 C 5.5943275,14.720202 6.9642819,12.868413 7.9941822,11.840787 L 9.8667129,9.9723915 11.322683,9.655016 C 12.123461,9.4803488 14.218126,8.6423226 15.97748,7.7925054 17.736835,6.9426671 20.726204,5.858431 22.620525,5.3830596 l 3.444217,-0.8642893 6.6854,0.2337695 6.685403,0.2337695 5.064807,1.7172476 5.064809,1.7172692 9.253973,4.8025569 c 11.547346,5.992763 16.229787,8.00058 22.25395,9.542427 l 4.745452,1.214544 5.864516,-0.0016 5.864516,-0.0016 3.198812,-0.661036 c 1.75937,-0.363556 5.59795,-1.416232 8.53021,-2.339263 l 5.33138,-1.678233 15.59314,-7.799712 15.59317,-7.7997138 4.50681,-1.4318742 4.50677,-1.43189545 3.89127,-0.29272488 3.89124,-0.2927039 3.42103,0.87545193 3.42103,0.8754729 2.96758,1.694127 c 3.66703,2.0934318 7.06292,5.4237137 8.63893,8.4720144 l 1.19504,2.311472 0.21483,4.255685 0.21485,4.255682 -1.05337,3.191765 -1.05333,3.191762 -0.0533,-2.698026 -0.0533,-2.69802 -0.81459,-2.385384 c -0.44805,-1.311973 -1.50312,-3.218842 -2.34463,-4.237524 l -1.53007,-1.852104 -3.08637,-1.50792 -3.08635,-1.507898 -4.29876,-0.266693 -4.29877,-0.266713 -3.31862,0.849274 c -1.82521,0.467099 -4.75534,1.572927 -6.51138,2.457428 l -3.19277,1.608132 -3.88481,3.37131 C 133.1175,29.755624 122.56298,35.083166 108.4131,38.244309 l -5.53419,1.236683 -10.929305,-0.02701 -10.929326,-0.02703 -4.83684,-1.150019 c -2.660252,-0.632527 -6.799899,-1.843174 -9.19923,-2.690352 l -4.362412,-1.540322 0.535383,0.643674 c 0.90308,1.085745 7.507487,3.871646 11.829743,4.990083 l 4.096262,1.059962 6.358236,0.635335 6.358234,0.635338 6.819357,-0.606036 C 111.33867,40.274244 123.6606,36.951666 136.01082,31.321997 l 5.9092,-2.693626 4.20405,-1.133536 4.20404,-1.133558 5.86453,-0.276053 5.86452,-0.276075 5.13413,1.06193 5.13412,1.061933 4.64549,2.172157 c 5.92014,2.768121 10.40267,5.967089 14.52959,10.36904 l 3.26914,3.487 1.85978,3.345571 c 2.25681,4.059739 3.12059,7.136754 3.12059,11.116406 v 3.00637 l -1.03417,2.324813 -1.03418,2.324816 -2.21951,1.994849 c -1.22071,1.097181 -2.47488,1.994852 -2.78703,1.994852 h -0.56751 l 0.36778,-1.156217 c 0.20234,-0.635902 0.37683,-3.209271 0.38792,-5.718574 l 0.021,-4.562359 -1.18031,-2.659801 c -1.42919,-3.220727 -3.34348,-5.317511 -6.18795,-6.777929 l -2.13253,-1.094896 -3.46541,-0.238733 -3.4654,-0.238714 -3.60344,0.843829 c -5.99032,1.402783 -11.52971,4.600034 -17.18893,9.921251 -1.75936,1.654291 -4.99013,4.493284 -7.17949,6.308904 l -3.98069,3.301129 -3.74981,1.848037 c -2.06242,1.016424 -5.06935,2.197962 -6.68209,2.625625 l -2.93225,0.777583 -5.33139,0.002 -5.33137,0.002 -4.2651,-1.022994 c -2.34581,-0.562666 -4.74493,-1.165897 -5.33138,-1.340544 -0.58645,-0.174679 -0.006,0.174899 1.28878,0.776748 3.33861,1.551271 9.2641,3.014307 14.00301,3.457406 l 4.05745,0.379369 3.9204,-0.64759 3.92038,-0.64761 4.05826,-1.547941 4.05826,-1.547942 3.13909,-2.176995 c 1.72653,-1.197352 4.93845,-3.894474 7.13765,-5.993602 6.63124,-6.329536 10.47429,-8.880704 14.51807,-9.637659 l 1.93971,-0.363072 1.76744,0.595688 c 0.9721,0.327638 2.36722,1.077368 3.10029,1.666045 l 1.33284,1.07037 -2.13255,-0.389966 c -1.1729,-0.214459 -3.12166,-0.361482 -4.33058,-0.326695 l -2.19804,0.06325 -2.60021,1.330235 -2.6002,1.330234 -7.74092,7.889312 -7.74091,7.889332 -3.45497,2.011917 -3.45498,2.011922 -3.73198,1.179507 -3.73194,1.179528 -5.86454,-0.03309 -5.86452,-0.03309 -4.26509,-1.462976 C 114.1386,77.10423 109.37445,74.528662 100.49453,68.687066 93.439009,64.04563 83.907617,58.89158 82.401631,58.903411 l -0.847523,0.0062 3.029251,1.722213 c 1.666077,0.947225 4.30511,2.828625 5.864517,4.180894 l 2.835264,2.458664 1.865982,3.10554 1.865984,3.105559 v 4.288083 4.288105 l -1.347265,2.648765 -1.347245,2.648743 -2.364402,1.19691 -2.364383,1.196915 H 87.92265 86.253486 l -2.293457,-1.210129 z m 52.460583,-31.504983 3.68529,-0.779008 3.45527,-1.613328 c 4.52449,-2.112595 9.26309,-5.553939 12.8988,-9.367551 l 2.93225,-3.075756 -2.39911,1.872018 c -6.66558,5.201088 -13.77552,9.149301 -19.83698,11.015645 l -3.5763,1.101157 -3.88765,0.349145 -3.88765,0.349146 -4.26509,-0.633175 c -2.34581,-0.348267 -7.98374,-1.552677 -12.52874,-2.676497 -8.16444,-2.018769 -16.393335,-3.502708 -16.857164,-3.039904 -0.131396,0.131091 0.788709,0.395495 2.044752,0.587503 1.25602,0.192051 6.362182,1.450953 11.347042,2.797673 4.98481,1.34674 10.7427,2.755911 12.79529,3.131509 l 3.73194,0.682875 5.3314,0.03876 5.33138,0.03876 3.68527,-0.778988 z M 5.5271177,21.926172 l 0.5432132,-2.127843 -0.7783605,1.032613 -0.7783601,1.032587 0.04198,1.627213 c 0.046177,1.786049 0.1647677,1.595002 0.9714232,-1.56457 z" />
</svg>
