<?xml version="1.0" encoding="UTF-8" standalone="no"?>
<!-- Created with Inkscape (http://www.inkscape.org/) -->

<svg
   xmlns:dc="http://purl.org/dc/elements/1.1/"
   xmlns:cc="http://creativecommons.org/ns#"
   xmlns:rdf="http://www.w3.org/1999/02/22-rdf-syntax-ns#"
   xmlns:svg="http://www.w3.org/2000/svg"
   xmlns="http://www.w3.org/2000/svg"
   xmlns:xlink="http://www.w3.org/1999/xlink"
   xmlns:sodipodi="http://sodipodi.sourceforge.net/DTD/sodipodi-0.dtd"
   xmlns:inkscape="http://www.inkscape.org/namespaces/inkscape"
   width="210mm"
   height="297mm"
   viewBox="0 0 210 297"
   version="1.1"
   id="svg8"
   sodipodi:docname="logo.svg"
   inkscape:version="0.92.3 (2405546, 2018-03-11)">
  <defs
     id="defs2">
    <linearGradient
       inkscape:collect="always"
       id="linearGradient5174">
      <stop
         id="stop5166"
         offset="0"
         style="stop-color:#00c3f9;stop-opacity:0" />
      <stop
         style="stop-color:#00c3f9;stop-opacity:0.33"
         offset="0.40000001"
         id="stop5168" />
      <stop
         id="stop5172"
         offset="1"
         style="stop-color:#00c3f9;stop-opacity:1;" />
    </linearGradient>
    <clipPath
       clipPathUnits="userSpaceOnUse"
       id="clipPath18">
      <path
         d="M 3044.85,0 C 1363.23,0 0,203.461 0,454.441 0,705.41 1363.23,908.859 3044.85,908.859 4726.47,908.859 6089.69,705.41 6089.69,454.441 6089.69,203.461 4726.47,0 3044.85,0"
         id="path20" />
    </clipPath>
    <clipPath
       clipPathUnits="userSpaceOnUse"
       id="clipPath30">
      <path
         d="M 0,3832 0,0 l 6089.69,0 0,3832 L 0,3832 Z"
         id="path32" />
    </clipPath>
    <clipPath
       clipPathUnits="userSpaceOnUse"
       id="clipPath80">
      <path
         d="m 2788.36,2246.6 -256.48,0 c -3.06,0.66 -19.07,4.34 -19.07,4.34 -17.41,4.1 -33.17,8.18 -48.17,12.44 l -6.49,1.93 c -15.5,4.52 -30.45,9.28 -44.44,14.09 l -4.55,1.52 c -13.92,4.85 -28.16,10.26 -43.53,16.52 l -8.06,3.3 c -14.03,5.88 -27.59,11.99 -40.31,18.1 l -6.54,3.26 c -14.56,7.15 -27.3,13.83 -39.59,20.71 -11.57,6.57 -23.65,13.86 -36.94,22.42 l -5.91,3.79 c -11.33,7.43 -22.51,15.21 -33.21,23.16 l -5.56,4.17 c -11.98,9.07 -22.38,17.36 -31.8,25.43 l -1.19,1.03 c -9.72,8.35 -19.3,17.09 -29.29,26.74 l -3.52,3.35 c -8.91,8.76 -17.92,18.14 -26.74,27.89 l -4.06,4.54 c -9.19,10.33 -17.29,19.98 -24.77,29.48 l -1.68,2.18 c -8.07,10.36 -15.78,20.86 -22.89,31.21 l -1.03,1.46 c -6.93,10.11 -13.69,20.71 -21.23,33.28 l -1.86,3.11 c -6.58,11.16 -12.75,22.33 -18.31,33.13 l -1.27,2.53 c -11.68,22.94 -22.2,46.97 -31.59,72.27 l -0.64,1.7 c -4.41,12.01 -8.53,24.3 -12.26,36.52 l -0.6,1.99 c -11.33,37.51 -19.82,76.79 -25.31,117.56 -0.35,2.6 -0.55,5.25 -0.88,7.85 30.2,9.7 62.33,15.04 95.71,15.04 9.99,0 20.46,-0.6 32,-1.82 l 15.43,-1.64 1.44,15.45 c 15.75,169.23 79.48,321.07 167.3,405.86 -19.6,-51.67 -34.76,-105.27 -45.24,-160 -18.26,-95.59 -21.4,-190.06 -9.27,-280.74 5.48,-40.77 13.97,-80.05 25.31,-117.56 l 0.59,-1.99 c 3.73,-12.22 7.86,-24.51 12.27,-36.52 l 0.63,-1.7 c 9.39,-25.3 19.91,-49.33 31.6,-72.27 l 1.26,-2.53 c 5.56,-10.8 11.74,-21.97 18.31,-33.13 l 1.87,-3.11 c 7.53,-12.57 14.3,-23.17 21.22,-33.28 l 1.04,-1.46 c 7.11,-10.35 14.82,-20.85 22.89,-31.21 l 1.67,-2.18 c 7.49,-9.5 15.58,-19.15 24.77,-29.48 l 4.06,-4.54 c 8.82,-9.75 17.83,-19.13 26.75,-27.89 l 3.51,-3.35 c 9.99,-9.65 19.58,-18.39 29.29,-26.74 l 1.19,-1.03 c 9.42,-8.07 19.83,-16.36 31.8,-25.43 l 5.56,-4.17 c 10.71,-7.95 21.89,-15.73 33.21,-23.16 l 5.91,-3.79 c 13.29,-8.56 25.37,-15.85 36.95,-22.42 12.28,-6.88 25.03,-13.56 39.59,-20.71 l 6.53,-3.26 c 12.72,-6.11 26.28,-12.22 40.31,-18.1 l 8.06,-3.3 c 15.38,-6.26 29.61,-11.67 43.53,-16.52 l 4.55,-1.52 c 13.99,-4.81 28.95,-9.57 44.45,-14.09 l 6.47,-1.93 c 15.01,-4.26 30.77,-8.34 48.18,-12.44 0,0 16.02,-3.68 19.07,-4.34"
         id="path82" />
    </clipPath>
    <clipPath
       clipPathUnits="userSpaceOnUse"
       id="clipPath92">
      <path
         d="m 4078.74,2296.83 c -70.64,7.85 -137.5,18.24 -200.68,31.03 150.52,95.28 244.88,262.64 244.88,443.38 0,245.43 -173.93,461.07 -413.56,512.75 l -7.73,1.66 -3.11,7.27 c -86.59,201.73 -254.36,351.23 -455.56,417.29 11.47,19.88 20.58,32.95 25.61,37.54 299.13,-1.39 568.3,-179.6 686.42,-454.83 l 3.12,-7.27 7.73,-1.66 c 239.62,-51.68 413.56,-267.32 413.56,-512.75 0,-202.21 -117.9,-387.97 -300.68,-474.41"
         id="path94" />
    </clipPath>
    <clipPath
       clipPathUnits="userSpaceOnUse"
       id="clipPath104">
      <path
         d="m 3549.34,2246.6 -62.19,0 c -87.81,0 -171.3,4.24 -250.34,12.59 -23.74,5.79 -47.08,12.04 -69.74,19.01 -13.3,4.1 -26.3,8.41 -39.2,12.89 l -1.92,0.68 c -12.67,4.47 -25.13,9.11 -37.23,13.88 l -1.87,0.74 c -12.34,4.9 -24.42,9.97 -36.99,15.52 -116.98,51.84 -215.06,122.74 -292.07,211.34 -7.01,8.09 -13.8,16.3 -20.4,24.61 l -1.27,1.6 c -6.44,8.15 -12.67,16.4 -18.71,24.74 l -1.44,1.99 c -5.99,8.35 -11.81,16.78 -17.36,25.22 l -1.17,1.8 c -5.69,8.69 -11.2,17.48 -16.94,27.12 -47.66,80.21 -80.73,170.1 -98.31,267.17 l -0.3,1.63 c -1.73,9.67 -3.29,19.39 -4.89,30.48 l -0.24,1.59 c -1.34,9.5 -2.52,19 -3.58,28.53 l -0.38,3.54 c -1,9.47 -1.86,18.96 -2.58,28.51 l -0.25,3.42 c -0.68,9.61 -1.23,19.25 -1.63,28.84 l -0.08,2.66 c -0.4,9.98 -0.65,19.98 -0.73,30.57 -0.65,93.21 11.69,187.94 36.97,282.57 2.61,9.73 5.36,19.4 8.22,29.04 l 0.48,1.61 c 2.86,9.55 5.84,19.05 8.94,28.51 l 0.51,1.54 c 0.69,2.07 1.41,4.17 2.11,6.24 131.82,235.2 366.62,359.44 498.49,391.61 -19.1,-17.91 -37.78,-37.4 -55.88,-58.3 -74,-85.49 -135.6,-192.8 -178.13,-310.32 -3.67,-10.2 -6.95,-19.7 -10.11,-29.23 l -0.5,-1.54 c -3.11,-9.46 -6.09,-18.96 -8.95,-28.51 l -0.48,-1.61 c -2.87,-9.64 -5.61,-19.31 -8.22,-29.04 -25.28,-94.63 -37.62,-189.36 -36.96,-282.57 0.08,-10.59 0.32,-20.59 0.72,-30.57 l 0.09,-2.66 c 0.39,-9.59 0.95,-19.23 1.62,-28.84 l 0.25,-3.42 c 0.72,-9.55 1.59,-19.04 2.59,-28.51 l 0.38,-3.54 c 1.05,-9.53 2.23,-19.03 3.57,-28.53 l 0.24,-1.59 c 1.61,-11.09 3.16,-20.81 4.89,-30.48 l 0.31,-1.63 c 17.56,-97.07 50.65,-186.96 98.31,-267.17 5.74,-9.64 11.25,-18.43 16.93,-27.12 l 1.17,-1.8 c 5.56,-8.44 11.37,-16.87 17.37,-25.22 l 1.43,-1.99 c 6.05,-8.34 12.28,-16.59 18.72,-24.74 l 1.27,-1.6 c 6.59,-8.31 13.39,-16.52 20.4,-24.61 76.99,-88.6 175.08,-159.5 292.06,-211.34 12.56,-5.55 24.66,-10.62 36.99,-15.52 l 1.87,-0.74 c 12.11,-4.77 24.55,-9.41 37.25,-13.88 l 1.91,-0.68 c 12.89,-4.48 25.91,-8.79 39.21,-12.89 40.2,-12.38 82.15,-22.92 125.77,-31.6"
         id="path106" />
    </clipPath>
    <clipPath
       clipPathUnits="userSpaceOnUse"
       id="clipPath18-8">
      <path
         d="M 3044.85,0 C 1363.23,0 0,203.461 0,454.441 0,705.41 1363.23,908.859 3044.85,908.859 4726.47,908.859 6089.69,705.41 6089.69,454.441 6089.69,203.461 4726.47,0 3044.85,0"
         id="path20-1" />
    </clipPath>
    <clipPath
       clipPathUnits="userSpaceOnUse"
       id="clipPath30-2">
      <path
         d="M 0,3832 0,0 l 6089.69,0 0,3832 L 0,3832 Z"
         id="path32-0" />
    </clipPath>
    <clipPath
       clipPathUnits="userSpaceOnUse"
       id="clipPath80-2">
      <path
         d="m 2788.36,2246.6 -256.48,0 c -3.06,0.66 -19.07,4.34 -19.07,4.34 -17.41,4.1 -33.17,8.18 -48.17,12.44 l -6.49,1.93 c -15.5,4.52 -30.45,9.28 -44.44,14.09 l -4.55,1.52 c -13.92,4.85 -28.16,10.26 -43.53,16.52 l -8.06,3.3 c -14.03,5.88 -27.59,11.99 -40.31,18.1 l -6.54,3.26 c -14.56,7.15 -27.3,13.83 -39.59,20.71 -11.57,6.57 -23.65,13.86 -36.94,22.42 l -5.91,3.79 c -11.33,7.43 -22.51,15.21 -33.21,23.16 l -5.56,4.17 c -11.98,9.07 -22.38,17.36 -31.8,25.43 l -1.19,1.03 c -9.72,8.35 -19.3,17.09 -29.29,26.74 l -3.52,3.35 c -8.91,8.76 -17.92,18.14 -26.74,27.89 l -4.06,4.54 c -9.19,10.33 -17.29,19.98 -24.77,29.48 l -1.68,2.18 c -8.07,10.36 -15.78,20.86 -22.89,31.21 l -1.03,1.46 c -6.93,10.11 -13.69,20.71 -21.23,33.28 l -1.86,3.11 c -6.58,11.16 -12.75,22.33 -18.31,33.13 l -1.27,2.53 c -11.68,22.94 -22.2,46.97 -31.59,72.27 l -0.64,1.7 c -4.41,12.01 -8.53,24.3 -12.26,36.52 l -0.6,1.99 c -11.33,37.51 -19.82,76.79 -25.31,117.56 -0.35,2.6 -0.55,5.25 -0.88,7.85 30.2,9.7 62.33,15.04 95.71,15.04 9.99,0 20.46,-0.6 32,-1.82 l 15.43,-1.64 1.44,15.45 c 15.75,169.23 79.48,321.07 167.3,405.86 -19.6,-51.67 -34.76,-105.27 -45.24,-160 -18.26,-95.59 -21.4,-190.06 -9.27,-280.74 5.48,-40.77 13.97,-80.05 25.31,-117.56 l 0.59,-1.99 c 3.73,-12.22 7.86,-24.51 12.27,-36.52 l 0.63,-1.7 c 9.39,-25.3 19.91,-49.33 31.6,-72.27 l 1.26,-2.53 c 5.56,-10.8 11.74,-21.97 18.31,-33.13 l 1.87,-3.11 c 7.53,-12.57 14.3,-23.17 21.22,-33.28 l 1.04,-1.46 c 7.11,-10.35 14.82,-20.85 22.89,-31.21 l 1.67,-2.18 c 7.49,-9.5 15.58,-19.15 24.77,-29.48 l 4.06,-4.54 c 8.82,-9.75 17.83,-19.13 26.75,-27.89 l 3.51,-3.35 c 9.99,-9.65 19.58,-18.39 29.29,-26.74 l 1.19,-1.03 c 9.42,-8.07 19.83,-16.36 31.8,-25.43 l 5.56,-4.17 c 10.71,-7.95 21.89,-15.73 33.21,-23.16 l 5.91,-3.79 c 13.29,-8.56 25.37,-15.85 36.95,-22.42 12.28,-6.88 25.03,-13.56 39.59,-20.71 l 6.53,-3.26 c 12.72,-6.11 26.28,-12.22 40.31,-18.1 l 8.06,-3.3 c 15.38,-6.26 29.61,-11.67 43.53,-16.52 l 4.55,-1.52 c 13.99,-4.81 28.95,-9.57 44.45,-14.09 l 6.47,-1.93 c 15.01,-4.26 30.77,-8.34 48.18,-12.44 0,0 16.02,-3.68 19.07,-4.34"
         id="path82-9" />
    </clipPath>
    <clipPath
       clipPathUnits="userSpaceOnUse"
       id="clipPath92-4">
      <path
         d="m 4078.74,2296.83 c -70.64,7.85 -137.5,18.24 -200.68,31.03 150.52,95.28 244.88,262.64 244.88,443.38 0,245.43 -173.93,461.07 -413.56,512.75 l -7.73,1.66 -3.11,7.27 c -86.59,201.73 -254.36,351.23 -455.56,417.29 11.47,19.88 20.58,32.95 25.61,37.54 299.13,-1.39 568.3,-179.6 686.42,-454.83 l 3.12,-7.27 7.73,-1.66 c 239.62,-51.68 413.56,-267.32 413.56,-512.75 0,-202.21 -117.9,-387.97 -300.68,-474.41"
         id="path94-6" />
    </clipPath>
    <clipPath
       clipPathUnits="userSpaceOnUse"
       id="clipPath104-6">
      <path
         d="m 3549.34,2246.6 -62.19,0 c -87.81,0 -171.3,4.24 -250.34,12.59 -23.74,5.79 -47.08,12.04 -69.74,19.01 -13.3,4.1 -26.3,8.41 -39.2,12.89 l -1.92,0.68 c -12.67,4.47 -25.13,9.11 -37.23,13.88 l -1.87,0.74 c -12.34,4.9 -24.42,9.97 -36.99,15.52 -116.98,51.84 -215.06,122.74 -292.07,211.34 -7.01,8.09 -13.8,16.3 -20.4,24.61 l -1.27,1.6 c -6.44,8.15 -12.67,16.4 -18.71,24.74 l -1.44,1.99 c -5.99,8.35 -11.81,16.78 -17.36,25.22 l -1.17,1.8 c -5.69,8.69 -11.2,17.48 -16.94,27.12 -47.66,80.21 -80.73,170.1 -98.31,267.17 l -0.3,1.63 c -1.73,9.67 -3.29,19.39 -4.89,30.48 l -0.24,1.59 c -1.34,9.5 -2.52,19 -3.58,28.53 l -0.38,3.54 c -1,9.47 -1.86,18.96 -2.58,28.51 l -0.25,3.42 c -0.68,9.61 -1.23,19.25 -1.63,28.84 l -0.08,2.66 c -0.4,9.98 -0.65,19.98 -0.73,30.57 -0.65,93.21 11.69,187.94 36.97,282.57 2.61,9.73 5.36,19.4 8.22,29.04 l 0.48,1.61 c 2.86,9.55 5.84,19.05 8.94,28.51 l 0.51,1.54 c 0.69,2.07 1.41,4.17 2.11,6.24 131.82,235.2 366.62,359.44 498.49,391.61 -19.1,-17.91 -37.78,-37.4 -55.88,-58.3 -74,-85.49 -135.6,-192.8 -178.13,-310.32 -3.67,-10.2 -6.95,-19.7 -10.11,-29.23 l -0.5,-1.54 c -3.11,-9.46 -6.09,-18.96 -8.95,-28.51 l -0.48,-1.61 c -2.87,-9.64 -5.61,-19.31 -8.22,-29.04 -25.28,-94.63 -37.62,-189.36 -36.96,-282.57 0.08,-10.59 0.32,-20.59 0.72,-30.57 l 0.09,-2.66 c 0.39,-9.59 0.95,-19.23 1.62,-28.84 l 0.25,-3.42 c 0.72,-9.55 1.59,-19.04 2.59,-28.51 l 0.38,-3.54 c 1.05,-9.53 2.23,-19.03 3.57,-28.53 l 0.24,-1.59 c 1.61,-11.09 3.16,-20.81 4.89,-30.48 l 0.31,-1.63 c 17.56,-97.07 50.65,-186.96 98.31,-267.17 5.74,-9.64 11.25,-18.43 16.93,-27.12 l 1.17,-1.8 c 5.56,-8.44 11.37,-16.87 17.37,-25.22 l 1.43,-1.99 c 6.05,-8.34 12.28,-16.59 18.72,-24.74 l 1.27,-1.6 c 6.59,-8.31 13.39,-16.52 20.4,-24.61 76.99,-88.6 175.08,-159.5 292.06,-211.34 12.56,-5.55 24.66,-10.62 36.99,-15.52 l 1.87,-0.74 c 12.11,-4.77 24.55,-9.41 37.25,-13.88 l 1.91,-0.68 c 12.89,-4.48 25.91,-8.79 39.21,-12.89 40.2,-12.38 82.15,-22.92 125.77,-31.6"
         id="path106-1" />
    </clipPath>
    <linearGradient
       inkscape:collect="always"
       xlink:href="#linearGradient5174"
       id="linearGradient5075"
       x1="1.018965"
       y1="285.02298"
       x2="7.7508168"
       y2="285.02298"
       gradientUnits="userSpaceOnUse" />
    <radialGradient
       inkscape:collect="always"
       xlink:href="#linearGradient5174"
       id="radialGradient5140"
       cx="3.5708413"
       cy="290.94611"
       fx="3.5708413"
       fy="290.94611"
       r="3.5708413"
       gradientTransform="matrix(0.81002191,0.81002303,-1.7837077,1.7837053,519.6412,-230.90846)"
       gradientUnits="userSpaceOnUse" />
    <radialGradient
       inkscape:collect="always"
       xlink:href="#linearGradient5174"
       id="radialGradient5202"
       cx="34.65731"
       cy="290.9346"
       fx="34.65731"
       fy="290.9346"
       r="3.534668"
       gradientTransform="matrix(1,0,0,1.0913743,0,-26.583936)"
       gradientUnits="userSpaceOnUse" />
  </defs>
  <sodipodi:namedview
     id="base"
     pagecolor="#ffffff"
     bordercolor="#666666"
     borderopacity="1.0"
     inkscape:pageopacity="0.0"
     inkscape:pageshadow="2"
     inkscape:zoom="2.8"
     inkscape:cx="33.962344"
     inkscape:cy="136.63132"
     inkscape:document-units="mm"
     inkscape:current-layer="layer1"
     showgrid="false"
     inkscape:window-width="1666"
     inkscape:window-height="1294"
     inkscape:window-x="436"
     inkscape:window-y="107"
     inkscape:window-maximized="0" />
  <metadata
     id="metadata5">
    <rdf:RDF>
      <cc:Work
         rdf:about="">
        <dc:format>image/svg+xml</dc:format>
        <dc:type
           rdf:resource="http://purl.org/dc/dcmitype/StillImage" />
      </cc:Work>
    </rdf:RDF>
  </metadata>
  <g
     inkscape:label="Calque 1"
     inkscape:groupmode="layer"
     id="layer1">
    <text
       xml:space="preserve"
       style="font-style:normal;font-variant:normal;font-weight:normal;font-stretch:normal;font-size:10.58333302px;line-height:1.25;font-family:'DejaVu Sans';-inkscape-font-specification:'DejaVu Sans, Normal';font-variant-ligatures:normal;font-variant-caps:normal;font-variant-numeric:normal;font-feature-settings:normal;text-align:start;letter-spacing:0px;word-spacing:0px;writing-mode:lr-tb;text-anchor:start;fill:#006666;fill-opacity:1;stroke:none;stroke-width:0.26458332;"
       x="7.7265034"
       y="294.79858"
       id="text4105"
       inkscape:export-xdpi="99.20594"
       inkscape:export-ydpi="99.20594"><tspan
         sodipodi:role="line"
         id="tspan4103"
         x="7.7265034"
         y="294.79858"
         style="font-style:normal;font-variant:normal;font-weight:normal;font-stretch:normal;font-size:10.58333302px;font-family:'DejaVu Sans';-inkscape-font-specification:'DejaVu Sans, Normal';font-variant-ligatures:normal;font-variant-caps:normal;font-variant-numeric:normal;font-feature-settings:normal;text-align:start;writing-mode:lr-tb;text-anchor:start;stroke-width:0.26458332;fill:#006666;fill-opacity:1;">pen</tspan></text>
    <path
       inkscape:connector-curvature="0"
       id="path5017"
       style="font-style:normal;font-variant:normal;font-weight:normal;font-stretch:normal;font-size:10.58333302px;line-height:1.25;font-family:'DejaVu Sans';-inkscape-font-specification:'DejaVu Sans, Normal';font-variant-ligatures:normal;font-variant-caps:normal;font-variant-numeric:normal;font-feature-settings:normal;text-align:start;letter-spacing:0px;word-spacing:0px;writing-mode:lr-tb;text-anchor:start;fill:url(#radialGradient5140);fill-opacity:1;fill-rule:evenodd;stroke:none;stroke-width:0.1;stroke-linejoin:round;stroke-miterlimit:4;stroke-dasharray:none;stroke-opacity:1;paint-order:markers stroke fill"
       d="m 3.576009,287.79126 c -0.6657944,-7.3e-4 -1.3608126,0.2825 -1.808675,0.84749 -0.4444173,0.565 -0.666626,1.33498 -0.666626,2.30994 0,0.97152 0.2222087,1.73978 0.666626,2.30477 0.4478624,0.56499 1.0507541,0.84749 1.808675,0.84749 0.757921,0 1.3573676,-0.2825 1.7983398,-0.84749 0.4444173,-0.56499 0.666626,-1.33325 0.666626,-2.30477 0,-0.97496 -0.2222087,-1.74494 -0.666626,-2.30994 -0.4409722,-0.56499 -1.1356634,-0.84676 -1.7983398,-0.84749 z m 0,-0.84749 c 1.08176,0 1.946479,0.36346 2.5941569,1.09037 0.6476779,0.72347 0.9715169,1.69498 0.9715169,2.91455 0,1.21612 -0.323839,2.18764 -0.9715169,2.91455 -0.6476779,0.72347 -1.5123969,1.08521 -2.5941569,1.08521 -1.085205,0 -1.953369,-0.36174 -2.60449208,-1.08521 C 0.32383899,293.13977 2.1886081e-8,292.16826 2.1886081e-8,290.94869 2.1886081e-8,289.72912 0.32383899,288.75761 0.97151692,288.03414 1.62264,287.30723 2.490804,286.94377 3.576009,286.94377 Z"
       sodipodi:nodetypes="acscscscascscscscs"
       inkscape:export-xdpi="99.20594"
       inkscape:export-ydpi="99.20594" />
    <rect
       style="fill:url(#linearGradient5075);fill-opacity:1;fill-rule:nonzero;stroke:none;stroke-width:0.1;stroke-linejoin:round;stroke-miterlimit:4;stroke-dasharray:0, 1.09999998;stroke-dashoffset:0;stroke-opacity:1;paint-order:markers stroke fill"
       id="rect5067"
       width="6.7318516"
       height="1.3363476"
       x="1.018965"
       y="284.3548" />
    <text
       xml:space="preserve"
       style="font-style:normal;font-weight:normal;font-size:10.58333302px;line-height:1.25;font-family:sans-serif;letter-spacing:0px;word-spacing:0px;fill:url(#radialGradient5202);fill-opacity:1.0;stroke:none;stroke-width:0.26458332"
       x="31.039961"
       y="294.79224"
       id="text5152"
       inkscape:export-xdpi="99.20594"
       inkscape:export-ydpi="99.20594"><tspan
         sodipodi:role="line"
         id="tspan5150"
         x="31.039961"
         y="294.79224"
         style="fill:url(#radialGradient5202);fill-opacity:1.0;stroke-width:0.26458332">A</tspan></text>
    <text
       xml:space="preserve"
       style="font-style:normal;font-weight:normal;font-size:10.58333302px;line-height:1.25;font-family:sans-serif;letter-spacing:0px;word-spacing:0px;fill:#006666;fill-opacity:1;stroke:none;stroke-width:0.26458332;"
       x="38.277328"
       y="294.79953"
       id="text5156"
       inkscape:export-xdpi="99.20594"
       inkscape:export-ydpi="99.20594"><tspan
         sodipodi:role="line"
         id="tspan5154"
         x="38.277328"
         y="294.79953"
         style="fill:#006666;fill-opacity:1;stroke-width:0.26458332;">ir</tspan></text>
  </g>
</svg>
